<svg xmlns="http://www.w3.org/2000/svg" height="107.04" viewBox="0 0 168.45 107.04"><g transform="translate(-899.24 -265.036)"><path d="M912.216,304.85A32.088,32.088,0,0,1,972.174,283a32.705,32.705,0,0,1,3.27-.165,32.086,32.086,0,0,1,0,64.172H921.3a22.058,22.058,0,0,1-9.084-42.159Z" fill="#cdcfd0"/><path d="M914.28,324.95a22.058,22.058,0,0,1,12.976-20.1,32.087,32.087,0,0,1,23.63-38.921A32.15,32.15,0,0,1,972.174,283a32.705,32.705,0,0,1,3.27-.165,32.086,32.086,0,0,1,0,64.172h-39.1A22.06,22.06,0,0,1,914.28,324.95Z" fill="#d8e4ea"/><path d="M972.376,329.917a32.088,32.088,0,0,1,59.958-21.848,32.726,32.726,0,0,1,3.271-.165,32.086,32.086,0,0,1,0,64.172H981.461a22.058,22.058,0,0,1-9.085-42.159Z" fill="#cdcfd0"/><path d="M974.441,350.017a22.059,22.059,0,0,1,12.976-20.1A32.1,32.1,0,0,1,1011.047,291a32.146,32.146,0,0,1,21.287,17.073,32.726,32.726,0,0,1,3.271-.165,32.086,32.086,0,0,1,0,64.172H996.5A22.059,22.059,0,0,1,974.441,350.017Z" fill="#e1e9ed"/></g></svg>