<svg xmlns="http://www.w3.org/2000/svg" height="233.057" viewBox="0 0 188.194 233.057"><g transform="translate(-375.602 -769.183)"><path d="M514.258,833.279a42.377,42.377,0,0,0,4.043-64.1,56.258,56.258,0,1,1-66.821,50.536,42.379,42.379,0,0,0,62.778,13.56Z" fill="#3b2b6f"/><path d="M541.47,869.261a56.255,56.255,0,0,1-74.515-5.92,56.059,56.059,0,0,1-7.538-33.126,42.827,42.827,0,0,0,3.439,5.329,42.362,42.362,0,1,0,63.383-55.865,56.043,56.043,0,0,1,29.821,16.269A56.255,56.255,0,0,1,541.47,869.261Z" fill="#665798"/><path d="M388.578,866.461a32.087,32.087,0,0,1,59.956-21.846,32.087,32.087,0,1,1,3.271,64.007H397.661a22.059,22.059,0,0,1-9.083-42.161Z" fill="#cdcfd0"/><path d="M390.643,886.564a22.057,22.057,0,0,1,12.974-20.1,32.1,32.1,0,0,1,23.631-38.92,32.153,32.153,0,0,1,21.286,17.074,32.087,32.087,0,1,1,3.271,64.007H412.7A22.059,22.059,0,0,1,390.643,886.564Z" fill="#d8e4ea"/><path d="M448.737,891.528A32.088,32.088,0,0,1,508.7,869.682a32.086,32.086,0,1,1,3.271,64.006H457.821a22.059,22.059,0,0,1-9.084-42.16Z" fill="#cdcfd0"/><path d="M450.8,911.63a22.064,22.064,0,0,1,12.975-20.1,32.091,32.091,0,0,1,23.63-38.92A32.156,32.156,0,0,1,508.7,869.682a32.086,32.086,0,1,1,3.271,64.006H472.862A22.059,22.059,0,0,1,450.8,911.63Z" fill="#e1e9ed"/><path d="M494.749,972.418c0-6.644,12.033-27.07,12.033-27.07s12.03,20.426,12.03,27.07a12.032,12.032,0,0,1-24.063,0Z" fill="#9ac6ce"/><path d="M511.8,954.441c3.3,6.336,7.016,14.284,7.016,17.977a12.03,12.03,0,0,1-7.016,10.937,12.028,12.028,0,0,1-7.02-10.937C504.776,968.725,508.493,960.777,511.8,954.441Z" fill="#aed2dc"/><path d="M456.027,990.209c0-6.644,12.033-27.07,12.033-27.07s12.03,20.426,12.03,27.07a12.031,12.031,0,0,1-24.063,0Z" fill="#9ac6ce"/><path d="M473.072,972.232c3.3,6.336,7.018,14.284,7.018,17.977a12.032,12.032,0,0,1-7.018,10.939,12.034,12.034,0,0,1-7.017-10.939C466.055,986.516,469.771,978.568,473.072,972.232Z" fill="#aed2dc"/></g></svg>