<svg xmlns="http://www.w3.org/2000/svg" width="188.194" height="164.506" viewBox="0 0 188.194 164.506"><g transform="translate(-376.979 -519.837)"><path d="M515.636,583.934a42.382,42.382,0,0,0,4.042-64.1,56.258,56.258,0,1,1-66.821,50.537,42.383,42.383,0,0,0,62.779,13.56Z" fill="#3b2b6f"/><path d="M542.847,619.915a56.252,56.252,0,0,1-74.516-5.921A56.039,56.039,0,0,1,460.8,580.87a42.873,42.873,0,0,0,3.438,5.328,42.362,42.362,0,1,0,63.383-55.865A56.036,56.036,0,0,1,557.437,546.6,56.255,56.255,0,0,1,542.847,619.915Z" fill="#665798"/><path d="M551.251,593.482c.032,0,.064.008.1.01a46.6,46.6,0,0,1-10.216,14.887,47.321,47.321,0,0,1-4.249,3.636,46.489,46.489,0,0,1-15.162,7.494,47.138,47.138,0,0,0,15.11-7.537A46.46,46.46,0,0,0,551.251,593.482Z" fill="none"/><path d="M510.048,621.266a46.713,46.713,0,0,0,10.5-1.44,44.94,44.94,0,0,1-10.5,1.461A.078.078,0,0,0,510.048,621.266Z" fill="#ffb379"/><path d="M389.955,617.116a32.087,32.087,0,0,1,59.957-21.846,32.413,32.413,0,0,1,3.271-.165,32.086,32.086,0,1,1,0,64.171H399.038a22.058,22.058,0,0,1-9.083-42.16Z" fill="#cdcfd0"/><path d="M392.019,637.218a22.057,22.057,0,0,1,12.976-20.1,32.091,32.091,0,0,1,23.63-38.92,32.152,32.152,0,0,1,21.287,17.074,32.413,32.413,0,0,1,3.271-.165,32.086,32.086,0,1,1,0,64.171H414.078A22.06,22.06,0,0,1,392.019,637.218Z" fill="#d8e4ea"/><path d="M450.114,642.184a32.089,32.089,0,0,1,59.959-21.848,32.428,32.428,0,0,1,3.271-.164,32.086,32.086,0,0,1,0,64.171H459.2a22.058,22.058,0,0,1-9.084-42.159Z" fill="#cdcfd0"/><path d="M452.18,662.284a22.056,22.056,0,0,1,12.974-20.1,32.1,32.1,0,0,1,23.631-38.921,32.155,32.155,0,0,1,21.288,17.073,32.428,32.428,0,0,1,3.271-.164,32.086,32.086,0,0,1,0,64.171h-39.1A22.059,22.059,0,0,1,452.18,662.284Z" fill="#e1e9ed"/></g></svg>