<svg xmlns="http://www.w3.org/2000/svg" width="127.77" height="136.616" viewBox="0 0 127.77 136.616"><g transform="translate(-147.395 -533.33)"><g transform="translate(185.134 -35.484) rotate(17)"><path d="M215.656,603.169a42.38,42.38,0,0,0-42.464-48.183,56.258,56.258,0,1,1-11.514,82.985,42.79,42.79,0,0,0,6.2,1.336A42.361,42.361,0,0,0,215.656,603.169Z" fill="#3b2b6f"/></g><g transform="translate(185.134 -35.484) rotate(17)"><path d="M260.342,609.369a56.256,56.256,0,0,1-56.878,48.5,56.042,56.042,0,0,1-28.751-18.093,42.361,42.361,0,1,0,11.514-82.985,56.041,56.041,0,0,1,32.589-9.583A56.257,56.257,0,0,1,260.342,609.369Z" fill="#665798"/></g><g transform="translate(185.134 -35.484) rotate(17)"><path d="M247.591,584.735c.026-.02.051-.039.076-.06a45.466,45.466,0,0,1-2.553,39.347,47.118,47.118,0,0,0,5.354-16.015A46.417,46.417,0,0,0,247.591,584.735Z" fill="none"/><path d="M238.1,633.518a46.847,46.847,0,0,0,6.41-8.445,44.879,44.879,0,0,1-6.4,8.458Z" fill="none"/></g></g></svg>