<svg xmlns="http://www.w3.org/2000/svg" width="168.451" height="173.185" viewBox="0 0 168.451 173.185"><g transform="translate(-643.065 -231.963)"><path d="M656.04,271.777A32.087,32.087,0,0,1,716,249.931a32.086,32.086,0,1,1,3.272,64.005H665.124a22.058,22.058,0,0,1-9.084-42.159Z" fill="#cdcfd0"/><path d="M658.1,291.878a22.059,22.059,0,0,1,12.975-20.1,32.091,32.091,0,0,1,23.63-38.92A32.145,32.145,0,0,1,716,249.931a32.086,32.086,0,1,1,3.272,64.005h-39.1A22.059,22.059,0,0,1,658.1,291.878Z" fill="#d8e4ea"/><path d="M716.2,296.844A32.088,32.088,0,0,1,776.158,275,32.087,32.087,0,1,1,779.43,339H725.284a22.059,22.059,0,0,1-9.084-42.16Z" fill="#cdcfd0"/><path d="M718.266,316.945a22.059,22.059,0,0,1,12.975-20.1,32.09,32.09,0,0,1,23.63-38.92A32.145,32.145,0,0,1,776.158,275,32.087,32.087,0,1,1,779.43,339h-39.1A22.059,22.059,0,0,1,718.266,316.945Z" fill="#e1e9ed"/><path d="M766.057,375.326c0-6.644,12.03-27.072,12.03-27.072s12.031,20.428,12.031,27.072a12.03,12.03,0,1,1-24.061,0Z" fill="#9ac6ce"/><path d="M783.1,357.35c3.3,6.334,7.018,14.283,7.018,17.976a12.03,12.03,0,0,1-7.018,10.937,12.03,12.03,0,0,1-7.018-10.937C776.082,371.633,779.8,363.684,783.1,357.35Z" fill="#aed2dc"/><path d="M727.332,393.118c0-6.645,12.033-27.072,12.033-27.072s12.03,20.427,12.03,27.072a12.032,12.032,0,0,1-24.063,0Z" fill="#9ac6ce"/><path d="M744.378,375.141c3.3,6.334,7.017,14.283,7.017,17.977a12.028,12.028,0,0,1-7.017,10.936,12.029,12.029,0,0,1-7.018-10.936C737.36,389.424,741.076,381.475,744.378,375.141Z" fill="#aed2dc"/></g></svg>