<svg xmlns="http://www.w3.org/2000/svg" width="168.451" height="180.077" viewBox="0 0 168.451 180.077"><g transform="translate(-643.065 -512.052)"><path d="M751.905,619.093H768.9l14.55,21.32H757.29l6.954,32.164L735.3,629.633h23.888Z" fill="#ebc859"/><path d="M747.894,619.093h16.991l14.551,21.32H753.279l10.463,32.164-32.448-42.944h23.888Z" fill="#ebc859"/><path d="M753.279,640.413l2.883,8.86L741.32,629.633h23.888l-7.287-10.54h6.965l14.551,21.32H753.279Z" fill="#f5d77a"/><path d="M656.04,551.866A32.088,32.088,0,0,1,716,530.019a32.413,32.413,0,0,1,3.271-.165,32.086,32.086,0,0,1,0,64.172H665.124a22.059,22.059,0,0,1-9.084-42.16Z" fill="#cdcfd0"/><path d="M658.1,571.966a22.058,22.058,0,0,1,12.975-20.1,32.1,32.1,0,0,1,23.63-38.921A32.149,32.149,0,0,1,716,530.019a32.413,32.413,0,0,1,3.271-.165,32.086,32.086,0,0,1,0,64.172h-39.1A22.06,22.06,0,0,1,658.1,571.966Z" fill="#d8e4ea"/><path d="M716.2,576.933a32.088,32.088,0,0,1,59.958-21.847,32.413,32.413,0,0,1,3.271-.165,32.086,32.086,0,0,1,0,64.172H725.284a22.059,22.059,0,0,1-9.083-42.16Z" fill="#cdcfd0"/><path d="M718.266,597.034a22.059,22.059,0,0,1,12.975-20.1,32.09,32.09,0,0,1,23.63-38.92,32.145,32.145,0,0,1,21.288,17.073,32.413,32.413,0,0,1,3.271-.165,32.086,32.086,0,0,1,0,64.172h-39.1A22.059,22.059,0,0,1,718.266,597.034Z" fill="#e1e9ed"/><path d="M710.323,680.1c0-6.647,12.031-27.073,12.031-27.073s12.033,20.426,12.033,27.073a12.032,12.032,0,0,1-24.064,0Z" fill="#9ac6ce"/><path d="M727.368,662.121c3.3,6.334,7.019,14.283,7.019,17.978a12.025,12.025,0,0,1-7.019,10.934A12.026,12.026,0,0,1,720.35,680.1C720.35,676.4,724.065,668.455,727.368,662.121Z" fill="#aed2dc"/><path d="M671.7,641.7c0-6.644,12.031-27.07,12.031-27.07s12.033,20.426,12.033,27.07a12.032,12.032,0,0,1-24.064,0Z" fill="#9ac6ce"/><path d="M688.743,623.728c3.3,6.333,7.019,14.284,7.019,17.975a12.029,12.029,0,0,1-7.019,10.938,12.03,12.03,0,0,1-7.018-10.938C681.725,638.012,685.44,630.061,688.743,623.728Z" fill="#aed2dc"/></g></svg>