<svg xmlns="http://www.w3.org/2000/svg" width="168.45" height="160.524" viewBox="0 0 168.45 160.524"><g transform="translate(-899.24 -521.828)"><path d="M1008.08,628.869h16.992l14.551,21.32h-26.157l6.953,32.163-28.939-42.944h23.889Z" fill="#ebc859"/><path d="M1004.07,628.869h16.991l14.55,21.32h-26.156l10.463,32.163-32.449-42.944h23.888Z" fill="#ebc859"/><path d="M1009.455,650.19l2.882,8.86L997.5,639.408h23.887l-7.287-10.539h6.965l14.55,21.32h-26.156Z" fill="#f5d77a"/><path d="M912.216,561.642a32.088,32.088,0,0,1,59.958-21.847,32.087,32.087,0,1,1,3.27,64.007H921.3a22.058,22.058,0,0,1-9.084-42.16Z" fill="#cdcfd0"/><path d="M914.28,581.743a22.058,22.058,0,0,1,12.976-20.1,32.086,32.086,0,0,1,23.63-38.92,32.15,32.15,0,0,1,21.288,17.073,32.087,32.087,0,1,1,3.27,64.007h-39.1A22.06,22.06,0,0,1,914.28,581.743Z" fill="#d8e4ea"/><path d="M972.376,586.708a32.088,32.088,0,0,1,59.958-21.846,32.087,32.087,0,1,1,3.271,64.007H981.461a22.059,22.059,0,0,1-9.085-42.161Z" fill="#cdcfd0"/><path d="M974.441,606.81a22.061,22.061,0,0,1,12.976-20.1,32.094,32.094,0,0,1,23.63-38.919,32.143,32.143,0,0,1,21.287,17.073,32.087,32.087,0,1,1,3.271,64.007H996.5A22.059,22.059,0,0,1,974.441,606.81Z" fill="#e1e9ed"/></g></svg>