<svg xmlns="http://www.w3.org/2000/svg" height="174.677" viewBox="0 0 174.676 174.677"><g transform="translate(-127.201 -231.217)"><path d="M169.145,318.555a42.886,42.886,0,1,1,42.888,42.887A42.889,42.889,0,0,1,169.145,318.555Z" fill="#ebc859"/><path d="M217.047,275.97a42.879,42.879,0,0,1,0,85.171,42.879,42.879,0,0,1,0-85.171Z" fill="#f5d77a"/><path d="M240.712,299.674c.015-.018.034-.035.051-.053a34.638,34.638,0,0,1,2.193,29.961,35.932,35.932,0,0,0,2.364-12.647A35.387,35.387,0,0,0,240.712,299.674Z" fill="#ffb379"/><path d="M238.659,337.482a35.5,35.5,0,0,0,3.95-7.044,34.2,34.2,0,0,1-3.937,7.053Z" fill="#ffb379"/><path d="M210.795,235.463a4.245,4.245,0,0,1,4.244-4.246h0a4.247,4.247,0,0,1,4.247,4.246v24.16a4.247,4.247,0,0,1-4.247,4.246h0a4.245,4.245,0,0,1-4.244-4.246Z" fill="#ebc859"/><path d="M209.792,235.463a4.247,4.247,0,0,1,4.246-4.246h0a4.245,4.245,0,0,1,4.245,4.246v24.16a4.245,4.245,0,0,1-4.245,4.246h0a4.247,4.247,0,0,1-4.246-4.246Z" fill="#ebc859"/><path d="M210.795,377.488a4.245,4.245,0,0,1,4.244-4.246h0a4.247,4.247,0,0,1,4.247,4.246v24.161a4.247,4.247,0,0,1-4.247,4.245h0a4.245,4.245,0,0,1-4.244-4.245Z" fill="#ebc859"/><path d="M209.792,377.488a4.247,4.247,0,0,1,4.246-4.246h0a4.245,4.245,0,0,1,4.245,4.246v24.161a4.245,4.245,0,0,1-4.245,4.245h0a4.246,4.246,0,0,1-4.246-4.245Z" fill="#ebc859"/><path d="M131.447,322.3a4.245,4.245,0,0,1-4.246-4.244h0a4.245,4.245,0,0,1,4.246-4.246h24.16a4.245,4.245,0,0,1,4.245,4.246h0a4.244,4.244,0,0,1-4.245,4.244Z" fill="#ebc859"/><path d="M131.447,323.3a4.246,4.246,0,0,1-4.246-4.246h0a4.246,4.246,0,0,1,4.246-4.246h24.16a4.245,4.245,0,0,1,4.245,4.246h0a4.245,4.245,0,0,1-4.245,4.246Z" fill="#ebc859"/><path d="M273.471,322.3a4.244,4.244,0,0,1-4.245-4.244h0a4.245,4.245,0,0,1,4.245-4.246h24.16a4.245,4.245,0,0,1,4.246,4.246h0a4.244,4.244,0,0,1-4.246,4.244Z" fill="#ebc859"/><path d="M273.471,323.3a4.245,4.245,0,0,1-4.245-4.246h0a4.245,4.245,0,0,1,4.245-4.246h24.16a4.245,4.245,0,0,1,4.246,4.246h0a4.245,4.245,0,0,1-4.246,4.246Z" fill="#ebc859"/><path d="M158.432,379.958a4.245,4.245,0,0,1-6.005,0h0a4.245,4.245,0,0,1,0-6l17.084-17.083a4.246,4.246,0,0,1,6.006,0h0a4.247,4.247,0,0,1,0,6Z" fill="#ebc859"/><path d="M159.14,380.668a4.245,4.245,0,0,1-6,0h0a4.247,4.247,0,0,1,0-6l17.085-17.084a4.244,4.244,0,0,1,6,0h0a4.246,4.246,0,0,1,0,6Z" fill="#ebc859"/><path d="M258.857,279.532a4.244,4.244,0,0,1-6,0h0a4.247,4.247,0,0,1,0-6l17.085-17.085a4.246,4.246,0,0,1,6,0h0a4.247,4.247,0,0,1,0,6Z" fill="#ebc859"/><path d="M259.567,280.241a4.245,4.245,0,0,1-6,0h0a4.245,4.245,0,0,1,0-6l17.087-17.084a4.245,4.245,0,0,1,6,0h0a4.245,4.245,0,0,1,0,6Z" fill="#ebc859"/><path d="M275.94,374.664a4.244,4.244,0,0,1,0,6h0a4.248,4.248,0,0,1-6.006,0l-17.083-17.084a4.245,4.245,0,0,1,0-6h0a4.245,4.245,0,0,1,6,0Z" fill="#ebc859"/><path d="M276.651,373.954a4.245,4.245,0,0,1,0,6h0a4.247,4.247,0,0,1-6.005,0l-17.085-17.084a4.247,4.247,0,0,1,0-6h0a4.248,4.248,0,0,1,6.006,0Z" fill="#ebc859"/><path d="M175.515,274.236a4.245,4.245,0,0,1,0,6.005h0a4.245,4.245,0,0,1-6,0l-17.084-17.085a4.242,4.242,0,0,1,0-6h0a4.244,4.244,0,0,1,6,0Z" fill="#ebc859"/><path d="M176.225,273.528a4.246,4.246,0,0,1,0,6h0a4.245,4.245,0,0,1-6,0l-17.085-17.084a4.248,4.248,0,0,1,0-6.005h0a4.246,4.246,0,0,1,6,0Z" fill="#ebc859"/></g></svg>
