<svg xmlns="http://www.w3.org/2000/svg" height="108.006" viewBox="0 0 108.006 108.006"><g transform="translate(-157.38 -831.709)"><path d="M157.38,885.711a54,54,0,1,1,54,54A54,54,0,0,1,157.38,885.711Z" fill="#ebc859"/><path d="M217.7,832.088a53.993,53.993,0,0,1,0,107.248,53.993,53.993,0,0,1,0-107.248Z" fill="#f5d77a"/><path d="M247.5,861.935l.064-.065a43.616,43.616,0,0,1,2.762,37.726,45.274,45.274,0,0,0,2.978-15.924A44.58,44.58,0,0,0,247.5,861.935Z" fill="#ffb379"/><path d="M244.911,909.543a44.7,44.7,0,0,0,4.974-8.867,43.263,43.263,0,0,1-4.957,8.882A.058.058,0,0,1,244.911,909.543Z" fill="#ffb379"/></g></svg>