<svg xmlns="http://www.w3.org/2000/svg" width="228.856" height="190.635" viewBox="0 0 228.856 190.635"><g transform="translate(-358.633 -223.238)"><path d="M371.608,346.646A32.088,32.088,0,0,1,431.565,324.8a32.417,32.417,0,0,1,3.269-.165,32.086,32.086,0,1,1,0,64.172H380.692a22.059,22.059,0,0,1-9.084-42.16Z" fill="#cdcfd0"/><path d="M373.673,366.748a22.059,22.059,0,0,1,12.975-20.1,32.086,32.086,0,0,1,23.629-38.92A32.151,32.151,0,0,1,431.565,324.8a32.417,32.417,0,0,1,3.269-.165,32.086,32.086,0,1,1,0,64.172h-39.1A22.059,22.059,0,0,1,373.673,366.748Z" fill="#d8e4ea"/><circle cx="42.887" cy="42.887" r="42.887" transform="translate(454.756 267.689)" fill="#ebc859"/><path d="M502.657,267.992a42.878,42.878,0,0,1,0,85.17,42.878,42.878,0,0,1,0-85.17Z" fill="#f5d77a"/><path d="M526.322,291.7c.017-.018.036-.036.051-.053a34.622,34.622,0,0,1,2.194,29.96,35.9,35.9,0,0,0,2.365-12.646A35.377,35.377,0,0,0,526.322,291.7Z" fill="#ffb379"/><path d="M524.271,329.5a35.543,35.543,0,0,0,3.949-7.044,34.288,34.288,0,0,1-3.937,7.052Z" fill="#ffb379"/><path d="M496.407,227.484a4.246,4.246,0,0,1,4.244-4.246h0a4.245,4.245,0,0,1,4.245,4.246v24.161a4.245,4.245,0,0,1-4.245,4.245h0a4.245,4.245,0,0,1-4.244-4.245Z" fill="#ebc859"/><path d="M495.4,227.484a4.247,4.247,0,0,1,4.246-4.246h0a4.247,4.247,0,0,1,4.247,4.246v24.161a4.247,4.247,0,0,1-4.247,4.245h0a4.246,4.246,0,0,1-4.246-4.245Z" fill="#ebc859"/><path d="M496.407,369.508a4.245,4.245,0,0,1,4.244-4.245h0a4.245,4.245,0,0,1,4.245,4.245v24.161a4.245,4.245,0,0,1-4.245,4.246h0a4.246,4.246,0,0,1-4.244-4.246Z" fill="#ebc859"/><path d="M495.4,369.508a4.246,4.246,0,0,1,4.246-4.245h0a4.247,4.247,0,0,1,4.247,4.245v24.161a4.247,4.247,0,0,1-4.247,4.246h0a4.247,4.247,0,0,1-4.246-4.246Z" fill="#ebc859"/><path d="M417.057,314.32a4.243,4.243,0,0,1-4.244-4.244h0a4.244,4.244,0,0,1,4.244-4.246h24.16a4.245,4.245,0,0,1,4.246,4.246h0a4.245,4.245,0,0,1-4.246,4.244Z" fill="#ebc859"/><path d="M417.057,315.324a4.244,4.244,0,0,1-4.244-4.246h0a4.244,4.244,0,0,1,4.244-4.246h24.16a4.246,4.246,0,0,1,4.246,4.246h0a4.246,4.246,0,0,1-4.246,4.246Z" fill="#ebc859"/><path d="M559.081,314.32a4.245,4.245,0,0,1-4.244-4.244h0a4.245,4.245,0,0,1,4.244-4.246h24.162a4.245,4.245,0,0,1,4.246,4.246h0a4.245,4.245,0,0,1-4.246,4.244Z" fill="#ebc859"/><path d="M559.081,315.324a4.246,4.246,0,0,1-4.244-4.246h0a4.246,4.246,0,0,1,4.244-4.246h24.162a4.246,4.246,0,0,1,4.246,4.246h0a4.246,4.246,0,0,1-4.246,4.246Z" fill="#ebc859"/><path d="M444.042,371.98a4.244,4.244,0,0,1-6,0h0a4.247,4.247,0,0,1,0-6.005l17.084-17.083a4.244,4.244,0,0,1,6,0h0a4.247,4.247,0,0,1,0,6Z" fill="#ebc859"/><path d="M444.752,372.689a4.247,4.247,0,0,1-6.005,0h0a4.245,4.245,0,0,1,0-6L455.831,349.6a4.245,4.245,0,0,1,6.005,0h0a4.245,4.245,0,0,1,0,6Z" fill="#ebc859"/><path d="M544.469,271.553a4.242,4.242,0,0,1-6,0h0a4.244,4.244,0,0,1,0-6l17.083-17.085a4.248,4.248,0,0,1,6.005,0h0a4.247,4.247,0,0,1,0,6Z" fill="#ebc859"/><path d="M545.177,272.262a4.245,4.245,0,0,1-6,0h0a4.247,4.247,0,0,1,0-6l17.085-17.085a4.245,4.245,0,0,1,6,0h0a4.245,4.245,0,0,1,0,6Z" fill="#ebc859"/><path d="M561.552,366.685a4.242,4.242,0,0,1,0,6h0a4.244,4.244,0,0,1-6,0l-17.083-17.083a4.245,4.245,0,0,1,0-6.005h0a4.242,4.242,0,0,1,6,0Z" fill="#ebc859"/><path d="M562.262,365.975a4.248,4.248,0,0,1,0,6.005h0a4.247,4.247,0,0,1-6,0l-17.085-17.085a4.247,4.247,0,0,1,0-6h0a4.245,4.245,0,0,1,6,0Z" fill="#ebc859"/><path d="M461.125,266.257a4.244,4.244,0,0,1,0,6h0a4.241,4.241,0,0,1-6,0l-17.086-17.084a4.244,4.244,0,0,1,0-6h0a4.244,4.244,0,0,1,6,0Z" fill="#ebc859"/><path d="M461.836,265.549a4.244,4.244,0,0,1,0,6h0a4.246,4.246,0,0,1-6.005,0l-17.084-17.084a4.247,4.247,0,0,1,0-6h0a4.248,4.248,0,0,1,6.005,0Z" fill="#ebc859"/><path d="M431.768,371.713a32.088,32.088,0,0,1,59.957-21.847A32.483,32.483,0,0,1,495,349.7a32.085,32.085,0,0,1,0,64.171H440.852a22.059,22.059,0,0,1-9.084-42.16Z" fill="#cdcfd0"/><path d="M433.833,391.815a22.057,22.057,0,0,1,12.975-20.1,32.1,32.1,0,0,1,23.63-38.92,32.149,32.149,0,0,1,21.287,17.073A32.483,32.483,0,0,1,495,349.7a32.085,32.085,0,0,1,0,64.171H455.892A22.06,22.06,0,0,1,433.833,391.815Z" fill="#e1e9ed"/></g></svg>