<svg xmlns="http://www.w3.org/2000/svg" height="161.527" viewBox="0 0 187.218 161.527"><g transform="translate(-889.208 -804.949)"><path d="M968.418,858.953a54,54,0,1,1,54,54A54,54,0,0,1,968.418,858.953Z" fill="#ebc859"/><path d="M1028.736,805.328a53.994,53.994,0,0,1,0,107.249,53.994,53.994,0,0,1,0-107.249Z" fill="#f5d77a"/><path d="M1058.536,835.175l.064-.066a43.616,43.616,0,0,1,2.762,37.726,45.266,45.266,0,0,0,2.978-15.926A44.589,44.589,0,0,0,1058.536,835.175Z" fill="#ffb379"/><path d="M1055.951,882.784a44.736,44.736,0,0,0,4.974-8.868,43.225,43.225,0,0,1-4.957,8.88A.081.081,0,0,1,1055.951,882.784Z" fill="#ffb379"/><path d="M902.182,899.25A32.088,32.088,0,0,1,962.14,877.4c1.075-.107,2.166-.164,3.271-.164a32.086,32.086,0,0,1,0,64.172H911.267a22.058,22.058,0,0,1-9.085-42.159Z" fill="#cdcfd0"/><path d="M904.248,919.35a22.053,22.053,0,0,1,12.975-20.1,32.088,32.088,0,0,1,23.629-38.922A32.153,32.153,0,0,1,962.14,877.4c1.075-.107,2.166-.164,3.271-.164a32.086,32.086,0,0,1,0,64.172h-39.1A22.059,22.059,0,0,1,904.248,919.35Z" fill="#d8e4ea"/><path d="M962.343,924.316a32.088,32.088,0,0,1,59.958-21.847,32.408,32.408,0,0,1,3.27-.164,32.086,32.086,0,1,1,0,64.171H971.426a22.058,22.058,0,0,1-9.083-42.16Z" fill="#cdcfd0"/><path d="M964.407,944.417a22.057,22.057,0,0,1,12.976-20.1,32.086,32.086,0,0,1,23.63-38.92,32.148,32.148,0,0,1,21.288,17.073,32.408,32.408,0,0,1,3.27-.164,32.086,32.086,0,1,1,0,64.171h-39.1A22.059,22.059,0,0,1,964.407,944.417Z" fill="#e1e9ed"/></g></svg>