<svg xmlns="http://www.w3.org/2000/svg" height="242.575" viewBox="0 0 228.856 242.575"><g transform="translate(-614.4 -764.426)"><path d="M627.375,870.226a32.087,32.087,0,0,1,59.957-21.846,32.087,32.087,0,1,1,3.271,64.006H636.459a22.059,22.059,0,0,1-9.084-42.16Z" fill="#cdcfd0"/><path d="M629.44,890.328a22.057,22.057,0,0,1,12.975-20.1,32.1,32.1,0,0,1,23.63-38.921,32.147,32.147,0,0,1,21.287,17.075,32.087,32.087,0,1,1,3.271,64.006H651.5A22.058,22.058,0,0,1,629.44,890.328Z" fill="#d8e4ea"/><path d="M710.524,851.764a42.887,42.887,0,1,1,42.887,42.886A42.888,42.888,0,0,1,710.524,851.764Z" fill="#ebc859"/><path d="M758.425,809.178a42.879,42.879,0,0,1,0,85.171,42.879,42.879,0,0,1,0-85.171Z" fill="#f5d77a"/><path d="M782.091,832.882a.638.638,0,0,1,.051-.054,35.535,35.535,0,0,1,4.35,13.049,34.674,34.674,0,0,1-2.156,16.912,35.932,35.932,0,0,0,2.363-12.648A35.378,35.378,0,0,0,782.091,832.882Z" fill="#ffb379"/><path d="M780.038,870.69a35.62,35.62,0,0,0,3.95-7.043,34.334,34.334,0,0,1-3.937,7.051Z" fill="#ffb379"/><path d="M752.174,768.671a4.244,4.244,0,0,1,4.244-4.245h0a4.244,4.244,0,0,1,4.246,4.245v24.16a4.245,4.245,0,0,1-4.246,4.246h0a4.245,4.245,0,0,1-4.244-4.246Z" fill="#ebc859"/><path d="M751.171,768.671a4.245,4.245,0,0,1,4.245-4.245h0a4.244,4.244,0,0,1,4.246,4.245v24.16a4.245,4.245,0,0,1-4.246,4.246h0a4.246,4.246,0,0,1-4.245-4.246Z" fill="#ebc859"/><path d="M752.174,910.7a4.245,4.245,0,0,1,4.244-4.246h0a4.245,4.245,0,0,1,4.246,4.246v24.16a4.246,4.246,0,0,1-4.246,4.247h0a4.246,4.246,0,0,1-4.244-4.247Z" fill="#ebc859"/><path d="M751.171,910.7a4.246,4.246,0,0,1,4.245-4.246h0a4.245,4.245,0,0,1,4.246,4.246v24.16a4.246,4.246,0,0,1-4.246,4.247h0a4.247,4.247,0,0,1-4.245-4.247Z" fill="#ebc859"/><path d="M672.825,855.506a4.244,4.244,0,0,1-4.245-4.242h0a4.246,4.246,0,0,1,4.245-4.248h24.161a4.245,4.245,0,0,1,4.244,4.248h0a4.243,4.243,0,0,1-4.244,4.242Z" fill="#ebc859"/><path d="M672.825,856.511a4.246,4.246,0,0,1-4.245-4.246h0a4.246,4.246,0,0,1,4.245-4.247h24.161a4.245,4.245,0,0,1,4.244,4.247h0a4.246,4.246,0,0,1-4.244,4.246Z" fill="#ebc859"/><path d="M814.85,855.506a4.244,4.244,0,0,1-4.246-4.242h0a4.247,4.247,0,0,1,4.246-4.248h24.16a4.247,4.247,0,0,1,4.246,4.248h0a4.244,4.244,0,0,1-4.246,4.242Z" fill="#ebc859"/><path d="M814.85,856.511a4.247,4.247,0,0,1-4.246-4.246h0a4.247,4.247,0,0,1,4.246-4.247h24.16a4.247,4.247,0,0,1,4.246,4.247h0a4.247,4.247,0,0,1-4.246,4.246Z" fill="#ebc859"/><path d="M699.81,913.166a4.246,4.246,0,0,1-6,0h0a4.244,4.244,0,0,1,0-6l17.084-17.084a4.245,4.245,0,0,1,6,0h0a4.244,4.244,0,0,1,0,6Z" fill="#ebc859"/><path d="M700.519,913.876a4.245,4.245,0,0,1-6,0h0a4.246,4.246,0,0,1,0-6.006L711.6,890.787a4.244,4.244,0,0,1,6,0h0a4.246,4.246,0,0,1,0,6Z" fill="#ebc859"/><path d="M800.237,812.74a4.247,4.247,0,0,1-6.005,0h0a4.248,4.248,0,0,1,0-6.005l17.085-17.085a4.246,4.246,0,0,1,6,0h0a4.248,4.248,0,0,1,0,6.006Z" fill="#ebc859"/><path d="M800.945,813.448a4.246,4.246,0,0,1-6,0h0a4.244,4.244,0,0,1,0-6l17.086-17.085a4.244,4.244,0,0,1,6,0h0a4.243,4.243,0,0,1,0,6Z" fill="#ebc859"/><path d="M817.319,907.87a4.247,4.247,0,0,1,0,6.006h0a4.248,4.248,0,0,1-6.005,0l-17.083-17.085a4.246,4.246,0,0,1,0-6.006h0a4.248,4.248,0,0,1,6.005,0Z" fill="#ebc859"/><path d="M818.029,907.162a4.245,4.245,0,0,1,0,6h0a4.247,4.247,0,0,1-6,0L794.94,896.081a4.246,4.246,0,0,1,0-6h0a4.247,4.247,0,0,1,6.005,0Z" fill="#ebc859"/><path d="M716.894,807.445a4.242,4.242,0,0,1,0,6h0a4.246,4.246,0,0,1-6,0l-17.085-17.084a4.241,4.241,0,0,1,0-6h0a4.245,4.245,0,0,1,6,0Z" fill="#ebc859"/><path d="M717.6,806.735a4.246,4.246,0,0,1,0,6h0a4.245,4.245,0,0,1-6,0l-17.084-17.084a4.246,4.246,0,0,1,0-6.006h0a4.246,4.246,0,0,1,6,0Z" fill="#ebc859"/><path d="M687.535,895.293a32.089,32.089,0,0,1,59.959-21.848,32.683,32.683,0,0,1,3.271-.166,32.087,32.087,0,0,1,0,64.173H696.618a22.058,22.058,0,0,1-9.083-42.159Z" fill="#cdcfd0"/><path d="M689.6,915.394a22.057,22.057,0,0,1,12.975-20.1,32.1,32.1,0,0,1,23.63-38.92,32.146,32.146,0,0,1,21.289,17.072,32.683,32.683,0,0,1,3.271-.166,32.087,32.087,0,0,1,0,64.173H711.659A22.06,22.06,0,0,1,689.6,915.394Z" fill="#e1e9ed"/><path d="M739.686,977.178c0-6.645,12.033-27.073,12.033-27.073s12.031,20.428,12.031,27.073a12.032,12.032,0,1,1-24.064,0Z" fill="#9ac6ce"/><path d="M756.731,959.2c3.3,6.334,7.019,14.283,7.019,17.976a12.028,12.028,0,0,1-7.019,10.936,12.03,12.03,0,0,1-7.016-10.936C749.715,973.485,753.431,965.536,756.731,959.2Z" fill="#aed2dc"/><path d="M700.965,994.97C700.965,988.324,713,967.9,713,967.9s12.03,20.427,12.03,27.073a12.031,12.031,0,1,1-24.062,0Z" fill="#9ac6ce"/><path d="M718.01,976.993c3.3,6.334,7.017,14.283,7.017,17.977a12.028,12.028,0,0,1-7.017,10.935,12.029,12.029,0,0,1-7.018-10.935C710.992,991.276,714.708,983.327,718.01,976.993Z" fill="#aed2dc"/></g></svg>